<?xml version="1.0" encoding="UTF-8" standalone="no"?><svg xmlns="http://www.w3.org/2000/svg" xmlns:xlink="http://www.w3.org/1999/xlink" width="38px" height="48px" viewBox="0 0 38 48" version="1.1"><title>stackoverflow-color</title><g id="Icons" stroke="none" stroke-width="1" fill="none" fill-rule="evenodd"><g id="Color-" transform="translate(-807.000000, -952.000000)"><g id="stackoverflow" transform="translate(807.000000, 952.000000)"><path d="M25.086 41.592l-19.111.01-.002-4.048 19.11-.01.003 4.048zM38 18.671L34.73 0 30.71.692l3.269 18.67L38 18.672zM25.546 32.355l-19.03-1.739-.375 4.031 19.03 1.737.375-4.03zm1.255-5.282l-18.455-4.92-1.06 3.91 18.456 4.919 1.059-3.909zm2.41-4.63l-16.462-9.627-2.074 3.486 16.462 9.627 2.073-3.485zm4.036-2.834L22.479 3.952l-3.372 2.28 10.768 15.656 3.372-2.28z" fill="#FF810F"/><path id="stackoverflow-icon-path" fill="#BEBCBC" d="M28.332 28.278v16.546H3.265V28.278H0V48h31.58V28.278z"/></g></g></g><metadata><rdf:RDF xmlns:rdf="http://www.w3.org/1999/02/22-rdf-syntax-ns#" xmlns:rdfs="http://www.w3.org/2000/01/rdf-schema#" xmlns:dc="http://purl.org/dc/elements/1.1/"><rdf:Description about="https://iconscout.com/legal#licenses" dc:title="stackoverflow,color" dc:description="stackoverflow,color" dc:publisher="Iconscout" dc:date="2017-09-14" dc:format="image/svg+xml" dc:language="en"><dc:creator><rdf:Bag><rdf:li>Alexis Doreau</rdf:li></rdf:Bag></dc:creator></rdf:Description></rdf:RDF></metadata></svg>